<svg xmlns="http://www.w3.org/2000/svg" viewBox="0 0 980 310" role="img" aria-labelledby="t"><title id="t">Fusion Solution</title><rect width="980" height="310" fill="none"/><g transform="translate(35 20)"><circle cx="135" cy="135" r="63" fill="#ff8700"/><path d="M135 18a117 117 0 0 1 103 61l-50 28a60 60 0 0 0-53-31z" fill="#ffd400"/><path d="M238 79a117 117 0 0 1-2 117l-49-29a60 60 0 0 0 1-60z" fill="#ffd400"/><path d="M236 196a117 117 0 0 1-103 57l1-57a60 60 0 0 0 53-29z" fill="#ffd400"/><path d="M133 253A117 117 0 0 1 32 192l50-28a60 60 0 0 0 52 32z" fill="#ffd400"/><path d="M32 192a117 117 0 0 1 1-115l49 29a60 60 0 0 0 0 58z" fill="#ffd400"/></g><text x="330" y="143" font-family="Arial,Helvetica,sans-serif" font-size="112" font-weight="700" letter-spacing="3" fill="#231f20">FUSION</text><text x="335" y="235" font-family="Arial,Helvetica,sans-serif" font-size="65" font-weight="400" letter-spacing="19" fill="#f47f00">SOLUTION</text></svg>